<svg width="20" height="20" viewBox="0 0 20 20" fill="none" xmlns="http://www.w3.org/2000/svg">
<path fill-rule="evenodd" clip-rule="evenodd" d="M2.35635 0.638537C2.57507 0.420148 2.8377 0.250735 3.12685 0.141524C3.41599 0.032314 3.72504 -0.0141998 4.03352 0.00506549C4.342 0.0243308 4.64287 0.108935 4.91618 0.253272C5.18949 0.397609 5.429 0.598382 5.61885 0.842287L7.8626 3.72479C8.27385 4.25354 8.41885 4.94229 8.25635 5.59229L7.5726 8.32979C7.53725 8.47157 7.53916 8.62009 7.57814 8.76092C7.61713 8.90176 7.69187 9.03011 7.7951 9.13354L10.8664 12.2048C10.9699 12.3082 11.0985 12.3831 11.2395 12.4221C11.3806 12.4611 11.5294 12.4629 11.6714 12.4273L14.4076 11.7435C14.7284 11.6633 15.0632 11.6571 15.3867 11.7253C15.7102 11.7935 16.014 11.9344 16.2751 12.1373L19.1576 14.3798C20.1939 15.186 20.2889 16.7173 19.3614 17.6435L18.0689 18.936C17.1439 19.861 15.7614 20.2673 14.4726 19.8135C11.1741 18.6529 8.17919 16.7646 5.7101 14.2885C3.23421 11.8198 1.34586 8.82536 0.1851 5.52729C-0.2674 4.23979 0.13885 2.85604 1.06385 1.93104L2.35635 0.638537Z" fill="#2C3131"/>
</svg>
